<svg id="Layer_1" data-name="Layer 1" xmlns="http://www.w3.org/2000/svg" viewBox="0 0 53.8 27.5"><defs><style>.cls-1{fill:#1c1c1c;}.cls-2{fill:none;stroke:#ccc;stroke-width:0.57px;}</style></defs><title>ArrowsArtboard 1 copy 2</title><path class="cls-1" d="M26.94,21.82,9.47,4.26a.61.61,0,1,0-.86.86l17.89,18a.62.62,0,0,0,.67.13.64.64,0,0,0,.22-.14L45.28,5.2a.61.61,0,0,0,.18-.43.58.58,0,0,0-.18-.43.6.6,0,0,0-.86,0Z"/><path class="cls-2" d="M26.94,21.82,9.47,4.26a.61.61,0,1,0-.86.86l17.89,18a.62.62,0,0,0,.67.13.64.64,0,0,0,.22-.14L45.28,5.2a.61.61,0,0,0,.18-.43.58.58,0,0,0-.18-.43.6.6,0,0,0-.86,0Z"/></svg>