<svg id="Layer_1" data-name="Layer 1" xmlns="http://www.w3.org/2000/svg" viewBox="0 0 27.5 53.8"><defs><style>.cls-1{fill:#1c1c1c;}.cls-2{fill:none;stroke:#ccc;stroke-width:0.57px;}</style></defs><title>ArrowsArtboard 1</title><path class="cls-1" d="M5.66,26.83,23.21,9.36a.62.62,0,0,0,0-.87.6.6,0,0,0-.86,0l-18,17.89a.61.61,0,0,0-.12.68.59.59,0,0,0,.14.22L22.28,45.17a.6.6,0,0,0,.43.18.61.61,0,0,0,.43-.18.6.6,0,0,0,0-.86Z"/><path class="cls-2" d="M5.66,26.83,23.21,9.36a.62.62,0,0,0,0-.87.6.6,0,0,0-.86,0l-18,17.89a.61.61,0,0,0-.12.68.59.59,0,0,0,.14.22L22.28,45.17a.6.6,0,0,0,.43.18.61.61,0,0,0,.43-.18.6.6,0,0,0,0-.86Z"/></svg>