<?xml version="1.0" encoding="utf-8"?>
<!-- Generator: Adobe Illustrator 23.1.0, SVG Export Plug-In . SVG Version: 6.00 Build 0)  -->
<svg version="1.1" id="Layer_1" xmlns="http://www.w3.org/2000/svg" xmlns:xlink="http://www.w3.org/1999/xlink" x="0px" y="0px"
	 viewBox="0 0 53.8 27.5" style="enable-background:new 0 0 53.8 27.5;" xml:space="preserve">
<style type="text/css">
	.st0{fill:#1C1C1C;}
	.st1{fill:none;stroke:#CCCCCC;stroke-width:0.5669;}
</style>
<title>ArrowAsset 1Left</title>
<g>
	<path class="st0" d="M26.9,21.8L9.5,4.3C9.2,4,8.8,4,8.6,4.3c-0.2,0.2-0.2,0.6,0,0.9l17.9,18c0.2,0.2,0.5,0.2,0.7,0.1
		c0.1,0,0.2-0.1,0.2-0.1L45.3,5.2c0.1-0.1,0.2-0.3,0.2-0.4c0-0.2-0.1-0.3-0.2-0.4c-0.2-0.2-0.6-0.2-0.9,0L26.9,21.8z"/>
	<path class="st1" d="M26.9,21.8L9.5,4.3C9.2,4,8.8,4,8.6,4.3c-0.2,0.2-0.2,0.6,0,0.9l17.9,18c0.2,0.2,0.5,0.2,0.7,0.1
		c0.1,0,0.2-0.1,0.2-0.1L45.3,5.2c0.1-0.1,0.2-0.3,0.2-0.4c0-0.2-0.1-0.3-0.2-0.4c-0.2-0.2-0.6-0.2-0.9,0L26.9,21.8z"/>
</g>
<g>
	<path class="st0" d="M51.4-40.5L33.8-23c-0.2,0.2-0.2,0.6,0,0.9c0.2,0.2,0.6,0.2,0.9,0l18-17.9c0.2-0.2,0.2-0.5,0.1-0.7
		c0-0.1-0.1-0.2-0.1-0.2L34.8-58.8c-0.1-0.1-0.3-0.2-0.4-0.2c-0.2,0-0.3,0.1-0.4,0.2c-0.2,0.2-0.2,0.6,0,0.9L51.4-40.5z"/>
	<path class="st1" d="M51.4-40.5L33.8-23c-0.2,0.2-0.2,0.6,0,0.9c0.2,0.2,0.6,0.2,0.9,0l18-17.9c0.2-0.2,0.2-0.5,0.1-0.7
		c0-0.1-0.1-0.2-0.1-0.2L34.8-58.8c-0.1-0.1-0.3-0.2-0.4-0.2c-0.2,0-0.3,0.1-0.4,0.2c-0.2,0.2-0.2,0.6,0,0.9L51.4-40.5z"/>
</g>
<g>
	<path class="st0" d="M2.1-40.5L19.6-58c0.2-0.2,0.2-0.6,0-0.9c-0.2-0.2-0.6-0.2-0.9,0l-18,17.9c-0.2,0.2-0.2,0.5-0.1,0.7
		c0,0.1,0.1,0.2,0.1,0.2l17.9,17.9C18.8-22,19-22,19.1-22c0.2,0,0.3-0.1,0.4-0.2c0.2-0.2,0.2-0.6,0-0.9L2.1-40.5z"/>
	<path class="st1" d="M2.1-40.5L19.6-58c0.2-0.2,0.2-0.6,0-0.9c-0.2-0.2-0.6-0.2-0.9,0l-18,17.9c-0.2,0.2-0.2,0.5-0.1,0.7
		c0,0.1,0.1,0.2,0.1,0.2l17.9,17.9C18.8-22,19-22,19.1-22c0.2,0,0.3-0.1,0.4-0.2c0.2-0.2,0.2-0.6,0-0.9L2.1-40.5z"/>
</g>
</svg>
