<svg id="Layer_1" data-name="Layer 1" xmlns="http://www.w3.org/2000/svg" viewBox="0 0 27.5 53.8"><defs><style>.cls-1{fill:#1c1c1c;}.cls-2{fill:none;stroke:#ccc;stroke-width:0.57px;}</style></defs><title>ArrowsArtboard 1 copy</title><path class="cls-1" d="M21.93,26.84,4.38,44.3a.62.62,0,0,0,0,.87.6.6,0,0,0,.86,0l18-17.89a.6.6,0,0,0,.13-.68.59.59,0,0,0-.14-.22L5.31,8.49a.61.61,0,0,0-.86.86Z"/><path class="cls-2" d="M21.93,26.84,4.38,44.3a.62.62,0,0,0,0,.87.6.6,0,0,0,.86,0l18-17.89a.6.6,0,0,0,.13-.68.59.59,0,0,0-.14-.22L5.31,8.49a.61.61,0,0,0-.86.86Z"/></svg>