<?xml version="1.0" standalone="no"?>
<!DOCTYPE svg PUBLIC "-//W3C//DTD SVG 20010904//EN"
 "http://www.w3.org/TR/2001/REC-SVG-20010904/DTD/svg10.dtd">
<svg version="1.0" xmlns="http://www.w3.org/2000/svg"
 width="854.000000pt" height="854.000000pt" viewBox="0 0 854.000000 854.000000"
 preserveAspectRatio="xMidYMid meet">
<metadata>
Created by potrace 1.14, written by Peter Selinger 2001-2017
</metadata>
<g transform="translate(0.000000,854.000000) scale(0.100000,-0.100000)"
fill="#000000" stroke="none">
<path d="M4387 7697 c-54 -53 -73 -65 -125 -80 -34 -9 -68 -17 -76 -17 -8 0
-16 -5 -18 -11 -2 -5 -24 4 -48 20 -25 17 -58 31 -74 31 -22 0 -40 12 -75 50
-46 50 -46 50 -123 56 -65 6 -82 4 -115 -13 -52 -27 -110 -87 -138 -143 -28
-55 -106 -149 -138 -167 -12 -6 -52 -17 -89 -23 -49 -9 -75 -19 -100 -41 -75
-66 -69 -63 -85 -46 -16 16 -39 11 -118 -24 -22 -10 -51 -21 -65 -25 -40 -11
-116 -71 -140 -110 -11 -20 -25 -59 -31 -88 -17 -84 -27 -102 -71 -122 -62
-28 -90 -72 -144 -228 -26 -75 -44 -95 -86 -96 -64 0 -198 -165 -198 -242 l0
-36 -57 -7 c-32 -3 -80 -6 -107 -5 -31 0 -55 -5 -66 -15 -9 -8 -45 -20 -79
-26 -38 -7 -72 -20 -86 -33 -36 -32 -72 -112 -89 -196 -8 -41 -20 -76 -26 -78
-26 -9 -70 -92 -76 -146 -5 -45 -12 -61 -39 -85 -44 -40 -59 -88 -53 -173 7
-88 56 -175 109 -194 37 -12 38 -14 24 -120 -5 -34 -4 -54 4 -58 6 -4 11 -23
11 -41 0 -26 6 -39 25 -51 36 -23 31 -50 -17 -105 -24 -26 -48 -53 -54 -61 -5
-7 -25 -26 -44 -41 -34 -29 -34 -29 -13 -45 11 -10 29 -32 39 -49 10 -18 21
-33 25 -33 3 0 18 -25 33 -55 30 -57 77 -107 146 -150 22 -14 45 -38 51 -53 6
-15 9 -92 7 -182 l-3 -155 37 -60 c29 -48 37 -74 43 -130 12 -134 23 -163 66
-186 34 -17 89 -83 89 -106 0 -5 -13 -15 -29 -24 -34 -20 -45 -57 -31 -109 10
-38 23 -51 122 -121 13 -9 31 -39 41 -67 12 -34 28 -58 50 -73 41 -29 47 -38
47 -72 0 -54 38 -102 127 -161 41 -28 63 -68 63 -118 0 -25 22 -68 31 -62 5 3
9 16 9 29 0 13 5 36 11 52 l11 28 18 -35 c15 -30 56 -146 91 -260 6 -19 21
-55 33 -80 13 -25 33 -78 45 -118 25 -83 82 -152 125 -152 13 0 26 -4 28 -8 5
-12 65 -52 78 -52 7 0 32 -18 56 -40 39 -36 47 -39 66 -29 19 10 24 9 37 -12
9 -13 31 -40 48 -60 18 -20 42 -56 53 -80 18 -41 73 -116 161 -217 39 -45 69
-55 69 -22 0 11 7 20 15 20 8 0 15 7 15 16 0 14 3 14 15 4 8 -7 15 -23 15 -36
0 -19 -5 -24 -25 -24 -16 0 -25 -6 -25 -16 0 -19 39 -53 60 -54 9 0 20 -13 26
-28 19 -50 249 -196 345 -220 145 -35 307 -37 581 -7 106 12 136 20 183 45 30
16 62 30 70 30 8 0 15 4 15 8 0 5 17 18 38 30 20 11 75 57 122 101 46 44 98
86 115 93 16 7 56 39 87 71 82 83 248 285 248 301 0 13 93 157 127 197 53 62
76 96 106 159 14 30 32 66 40 80 25 43 67 147 67 166 0 11 9 36 20 57 11 20
20 45 20 54 0 44 24 93 70 145 27 31 50 62 50 69 0 7 18 39 41 71 57 82 124
227 110 241 -7 7 -17 3 -34 -15 -14 -14 -39 -34 -58 -43 -19 -10 -37 -23 -41
-29 -11 -16 -10 -66 1 -66 14 0 -17 -57 -34 -64 -17 -6 -21 19 -5 29 6 3 10
24 10 45 0 21 4 42 10 45 6 3 10 24 10 46 0 27 5 42 16 46 12 4 14 14 10 35
-4 21 0 37 15 57 16 22 19 33 11 47 -5 11 -12 35 -15 54 -8 46 15 202 31 208
26 8 11 23 -18 17 -41 -9 -38 1 10 25 46 23 102 26 120 5 6 -8 18 -60 25 -116
13 -97 12 -105 -7 -158 -12 -31 -31 -71 -44 -90 -25 -37 -23 -51 6 -51 19 0
60 44 60 63 0 6 10 21 21 34 19 19 20 25 8 39 -12 14 -10 19 14 40 16 13 34
24 41 24 18 0 59 47 51 59 -3 6 -15 11 -27 11 -14 0 -18 5 -14 16 3 9 6 18 6
20 0 2 13 4 29 4 33 0 42 14 30 48 -8 19 -4 25 26 39 40 19 51 45 41 97 -5 25
-1 43 14 68 11 18 20 39 20 46 0 7 18 51 40 97 30 63 45 85 60 85 10 0 22 5
25 10 3 6 19 10 35 10 31 0 60 22 61 48 2 47 19 132 33 167 12 32 15 86 16
263 0 226 -5 268 -51 447 -11 39 -69 138 -90 150 -19 13 -87 172 -100 235 -11
58 -11 64 6 76 10 8 25 14 32 14 33 0 55 127 32 187 -6 15 -14 60 -17 98 -4
39 -11 70 -17 70 -5 0 -16 -20 -23 -45 -8 -25 -24 -68 -38 -97 -13 -28 -24
-59 -24 -67 0 -24 -17 -19 -36 9 -18 28 -14 61 18 133 42 95 1 219 -107 320
-52 48 -63 64 -69 101 -11 72 -72 190 -103 203 -16 6 -50 21 -78 34 -35 16
-71 23 -120 25 -38 1 -82 8 -96 15 -14 7 -35 10 -47 7 -17 -4 -23 2 -33 37
-11 35 -10 50 4 93 21 68 32 122 48 229 10 76 10 90 -2 105 -25 30 -106 176
-112 204 -4 14 -16 38 -28 53 l-21 27 -102 -7 c-85 -6 -107 -4 -134 10 -28 15
-38 15 -68 4 -46 -16 -60 -7 -98 69 -34 69 -60 84 -144 87 -35 1 -55 -5 -80
-22 -40 -29 -144 -43 -158 -21 -5 8 -9 43 -10 77 0 43 -5 67 -15 73 -26 16
-113 37 -182 43 -46 3 -81 13 -110 31 -28 16 -59 25 -85 25 -38 0 -48 -6 -105
-63z m-7 -1296 c63 -4 121 -10 129 -15 18 -12 123 -8 135 4 5 5 23 10 38 10
26 0 28 -3 28 -43 0 -63 24 -83 78 -65 22 7 52 28 67 46 15 18 30 31 33 28 3
-3 -1 -12 -7 -20 -8 -9 -10 -27 -6 -46 6 -26 11 -30 41 -30 23 0 43 8 57 23
34 33 76 59 87 52 6 -3 10 -14 10 -24 0 -10 15 -29 33 -41 19 -13 44 -38 57
-56 22 -34 135 -115 178 -128 12 -4 22 -12 22 -17 0 -5 8 -13 17 -16 46 -18
133 -103 160 -157 14 -28 31 -58 39 -67 8 -8 25 -67 39 -130 32 -143 43 -173
127 -337 36 -73 72 -158 79 -190 7 -31 31 -91 53 -132 39 -73 41 -78 44 -185
1 -60 9 -133 17 -162 8 -28 15 -60 15 -72 0 -11 7 -41 16 -67 11 -32 17 -93
19 -198 2 -126 7 -161 25 -211 17 -45 22 -82 22 -150 1 -80 -2 -94 -24 -127
-21 -30 -27 -57 -36 -155 -7 -65 -9 -131 -7 -148 17 -98 17 -123 -1 -151 -10
-16 -24 -33 -31 -37 -7 -4 -13 -16 -13 -27 0 -12 -8 -20 -22 -22 -16 -2 -25
-13 -33 -39 -5 -21 -18 -46 -28 -57 -13 -14 -21 -45 -26 -106 -9 -94 -13 -105
-34 -88 -10 8 -12 28 -9 66 3 33 0 56 -7 60 -8 5 -11 -13 -11 -59 0 -52 5 -72
22 -95 17 -24 19 -34 10 -52 -10 -23 -11 -23 -24 10 -11 29 -16 32 -42 26 -27
-6 -28 -5 -22 22 18 76 18 110 2 123 -14 12 -16 6 -16 -63 0 -73 -12 -99 -27
-58 -4 9 -19 32 -35 50 l-28 33 0 -33 c0 -18 5 -49 11 -68 6 -19 10 -66 9
-103 -1 -39 3 -66 8 -63 12 7 32 -37 32 -69 0 -15 6 -25 14 -25 16 0 26 -21
26 -56 0 -14 -4 -22 -10 -19 -5 3 -10 15 -10 26 0 10 -4 19 -9 19 -12 0 -16
-8 -25 -42 -5 -22 -3 -28 10 -28 15 0 15 -2 0 -25 -9 -13 -20 -42 -25 -62 -10
-44 -14 -34 -29 61 -9 56 -8 72 3 80 25 20 28 54 5 66 -14 8 -20 21 -20 46 0
26 -5 37 -18 41 -18 4 -42 53 -42 85 0 9 -7 22 -17 29 -15 13 -16 11 -9 -13 8
-35 -10 -37 -26 -3 -6 14 -14 25 -19 25 -4 0 -14 17 -22 38 -9 21 -26 43 -40
49 -35 16 -79 78 -86 121 -4 24 -12 38 -24 40 -10 2 -17 -3 -17 -12 0 -9 -4
-16 -10 -16 -9 0 -18 24 -24 65 -1 10 -12 26 -24 35 -11 10 -24 29 -28 44 -3
14 -12 26 -19 26 -9 0 -7 -13 10 -47 12 -27 25 -59 29 -73 8 -29 57 -130 62
-130 3 0 9 12 14 26 12 30 30 23 30 -11 0 -33 -10 -55 -25 -55 -21 0 -94 106
-112 161 -10 29 -27 57 -40 66 -15 10 -23 25 -23 42 0 27 -44 81 -56 68 -8 -8
15 -77 26 -77 12 0 38 -78 45 -137 3 -28 12 -64 20 -80 8 -15 15 -36 15 -45 0
-26 -29 -11 -36 18 -3 13 -12 24 -19 24 -9 0 -16 20 -21 56 -3 31 -15 77 -24
103 -48 125 -70 159 -70 106 0 -14 -3 -25 -8 -25 -4 0 -8 -19 -9 -42 -1 -61
-16 -121 -31 -126 -6 -2 -13 2 -13 10 -4 52 -10 82 -19 98 -5 10 -10 26 -10
35 0 9 -16 36 -35 59 -36 44 -45 71 -22 64 6 -3 28 -25 47 -51 24 -32 42 -47
58 -47 19 0 21 4 16 28 -4 15 -16 44 -27 65 -17 33 -21 36 -32 21 -11 -15 -13
-15 -33 6 -19 21 -27 22 -102 18 -78 -5 -82 -4 -93 19 -13 29 -23 29 -30 2 -5
-18 -11 -21 -35 -16 -24 5 -31 2 -35 -13 -6 -25 -27 -26 -28 -2 -1 9 -5 4 -11
-13 -12 -38 -58 -63 -74 -40 -19 26 -24 17 -24 -45 0 -52 -3 -63 -30 -90 -38
-39 -38 -50 0 -50 26 0 31 5 37 31 3 17 12 33 20 36 22 9 28 -5 10 -25 -10
-10 -17 -22 -17 -25 0 -15 48 -6 70 13 13 11 27 20 31 20 21 0 20 43 -2 66
-19 20 -20 24 -6 30 9 3 19 14 22 25 8 23 25 25 25 3 0 -9 6 -14 13 -11 7 2
11 15 9 30 -2 19 1 27 11 27 18 0 30 -27 16 -35 -5 -4 -7 -10 -4 -15 4 -6 14
-4 25 2 16 11 24 8 48 -15 15 -15 33 -27 38 -27 6 0 20 -9 32 -21 18 -16 21
-27 16 -54 -4 -22 0 -50 11 -79 9 -24 14 -53 10 -65 -8 -28 3 -61 20 -61 20 0
27 34 23 115 -2 55 0 70 11 70 20 0 32 -51 25 -102 -5 -33 -2 -45 15 -62 12
-12 27 -21 34 -22 6 0 23 -14 36 -31 22 -27 22 -30 5 -25 -10 4 -48 11 -84 17
-36 5 -94 20 -130 31 -58 19 -95 22 -340 26 -151 2 -284 5 -295 5 -30 2 -183
-10 -240 -18 -46 -7 -49 -6 -36 9 7 10 22 17 32 17 10 0 20 4 23 8 3 5 57 28
121 51 71 27 115 48 115 57 0 16 -26 19 -35 4 -3 -5 -18 -7 -33 -4 -19 4 -51
-5 -102 -29 -101 -47 -120 -52 -120 -33 0 8 -12 28 -26 45 -20 24 -22 31 -10
31 9 0 16 4 16 9 0 10 -29 36 -33 30 -13 -21 -29 -79 -26 -99 1 -14 3 -45 3
-70 1 -41 -1 -45 -24 -48 -14 -2 -33 -11 -42 -19 -17 -15 -18 -14 -18 5 0 18
6 22 29 22 40 0 46 14 21 50 -18 25 -19 33 -9 52 19 34 20 68 3 68 -8 0 -14
10 -14 23 0 20 4 23 33 19 32 -4 36 -1 58 44 26 52 57 75 44 33 -7 -21 -6 -22
7 -11 9 7 21 33 28 57 18 66 34 69 28 6 -4 -35 -12 -59 -28 -76 -18 -19 -25
-40 -28 -84 -5 -62 7 -83 34 -60 10 8 14 23 11 38 -12 63 41 134 166 223 68
48 79 64 52 74 -25 10 -73 -16 -85 -47 -16 -39 -39 -57 -50 -40 -5 8 -16 11
-30 6 -28 -9 -24 13 6 29 57 31 66 38 57 47 -7 7 -26 3 -54 -9 -24 -11 -67
-30 -95 -42 -46 -20 -168 -118 -134 -107 8 2 25 7 38 11 27 9 29 -9 6 -42 -15
-22 -17 -22 -29 -5 -11 15 -15 16 -31 3 -16 -14 -17 -13 -12 8 5 17 2 22 -13
22 -10 0 -19 3 -19 6 0 8 22 29 44 41 27 15 5 24 -25 10 -16 -8 -30 -29 -41
-62 -11 -36 -21 -50 -35 -50 -19 0 -20 6 -7 40 7 17 6 18 -8 7 -9 -7 -19 -24
-22 -37 -6 -23 -66 -63 -66 -44 0 5 14 28 31 51 18 26 26 44 19 46 -20 7 -58
-19 -64 -44 -4 -15 -14 -24 -25 -24 -12 0 -33 -21 -56 -56 -27 -40 -40 -53
-48 -45 -20 20 -30 12 -24 -19 8 -36 -11 -51 -30 -24 -11 15 -17 17 -33 6 -11
-6 -27 -12 -36 -12 -13 0 -15 -8 -9 -52 9 -66 23 -87 42 -62 17 23 16 34 -2
34 -16 0 -19 9 -9 34 11 28 29 17 46 -27 15 -42 14 -90 -2 -112 -4 -5 -13 -37
-20 -70 -14 -65 -36 -109 -50 -100 -10 6 -4 54 16 135 19 74 18 77 -12 44 -22
-23 -28 -41 -33 -101 -7 -83 -24 -98 -29 -24 -2 35 3 59 18 85 22 41 24 54 10
76 -8 13 -11 12 -24 -5 -15 -20 -15 -20 -16 0 0 11 -7 38 -16 60 l-15 40 6
-62 c6 -67 3 -73 -27 -46 -12 11 -18 30 -18 62 0 87 -23 124 -33 54 -3 -21 -9
-50 -12 -66 -6 -22 -4 -26 8 -21 12 4 14 -5 11 -63 -2 -37 -1 -62 2 -55 3 7
15 17 25 23 19 10 20 8 13 -28 -9 -52 -15 -59 -31 -37 -13 18 -14 18 -20 -4
-7 -30 -27 -23 -33 13 l-5 29 -13 -29 c-8 -17 -17 -24 -22 -19 -8 8 -4 38 15
102 12 39 -9 24 -47 -32 -26 -41 -38 -52 -47 -43 -16 16 -14 24 9 30 11 3 23
13 26 24 25 74 54 115 54 77 0 -8 5 -12 10 -9 6 3 10 17 10 30 0 13 7 40 16
59 23 46 12 90 -19 80 -30 -9 -32 -11 -18 -28 7 -8 10 -24 6 -36 -5 -16 -10
-18 -25 -10 -10 5 -26 7 -34 4 -19 -7 -21 9 -4 39 7 12 13 27 14 32 0 6 2 16
2 23 1 6 9 12 17 12 20 0 19 19 -5 58 -29 47 -44 32 -37 -38 5 -48 3 -60 -12
-74 -24 -22 -33 -70 -19 -101 9 -20 8 -31 -2 -50 -19 -36 -27 -21 -34 71 -6
67 -4 84 8 97 20 19 20 33 2 40 -16 6 -26 -13 -26 -49 0 -13 -4 -24 -10 -24
-11 0 -12 71 -1 110 4 14 16 29 27 35 20 10 20 12 6 74 -10 47 -19 65 -33 68
-12 3 -19 14 -19 29 0 13 -12 48 -27 76 -15 29 -31 62 -36 73 -6 11 -14 56
-18 101 -5 45 -18 105 -29 133 -26 68 -26 148 1 200 11 22 24 67 29 99 4 33
13 69 19 80 6 12 11 76 11 152 0 124 2 135 30 200 17 38 30 81 30 97 0 16 4
33 9 39 15 14 41 122 41 166 0 26 4 38 14 38 17 0 33 66 41 175 3 44 12 100
21 125 18 53 23 189 11 343 l-9 107 49 22 c26 11 50 24 53 27 3 3 23 18 46 33
53 34 154 127 154 142 0 6 14 26 30 44 16 19 32 42 35 52 8 24 68 64 135 90
30 11 69 27 85 35 17 8 69 21 116 30 47 8 128 29 179 45 51 17 101 30 110 30
30 0 154 68 170 93 65 103 61 99 94 92 17 -4 83 -10 146 -14z m-1886 -2393 c4
-20 27 -55 59 -90 45 -47 56 -67 71 -125 10 -37 26 -75 36 -83 9 -9 19 -29 22
-45 3 -17 15 -52 26 -80 32 -77 52 -153 64 -238 11 -79 7 -102 -15 -76 -6 9
-32 24 -57 34 -95 40 -114 58 -164 155 -66 130 -78 190 -75 390 1 92 -1 171
-4 177 -7 11 12 24 24 17 4 -2 10 -18 13 -36z m1372 -576 c-8 -9 -19 -13 -22
-9 -10 9 16 38 28 31 6 -4 4 -13 -6 -22z m951 -32 c35 -38 49 -60 44 -69 -12
-20 -126 91 -117 114 8 22 12 19 73 -45z m-1313 -133 c11 -57 -34 -217 -60
-217 -20 0 -17 44 6 90 22 43 25 71 11 86 -11 10 15 74 29 74 4 0 11 -15 14
-33z m180 10 c-3 -11 0 -30 7 -44 10 -18 10 -31 2 -54 -7 -18 -8 -31 -2 -35
12 -7 -8 -34 -23 -31 -14 3 -29 -51 -17 -59 5 -3 9 -18 9 -34 0 -20 6 -31 20
-35 11 -3 34 -26 50 -51 17 -24 35 -44 39 -44 4 0 13 -11 19 -25 6 -13 23 -27
37 -31 22 -5 25 -11 25 -49 0 -24 -4 -47 -10 -50 -6 -4 -7 5 -4 23 5 26 3 30
-23 35 -30 6 -170 -7 -180 -16 -3 -4 26 -3 64 0 91 7 113 -4 113 -58 0 -37 2
-40 28 -37 24 3 27 -1 30 -29 4 -41 -11 -49 -113 -56 -44 -3 -97 -12 -117 -21
-21 -9 -47 -16 -58 -16 -12 0 -28 -7 -36 -15 -9 -8 -22 -15 -29 -15 -16 0 -29
35 -20 50 8 13 35 13 35 0 0 -18 17 -11 50 20 30 28 31 32 16 43 -16 12 -15
14 8 36 13 13 29 20 35 16 14 -8 14 -62 1 -70 -15 -9 -12 -25 5 -25 8 0 15 4
15 9 0 5 24 21 53 35 42 20 49 26 33 32 -10 4 -27 2 -37 -4 -26 -17 -39 -15
-39 6 0 9 14 25 31 35 43 24 33 29 -26 12 -55 -17 -79 -19 -71 -6 3 5 -1 12
-9 15 -14 5 -13 10 4 43 10 21 31 49 45 62 33 31 33 49 -1 53 l-28 3 3 78 c3
65 1 77 -13 77 -39 0 -25 54 25 97 32 26 48 86 29 109 -6 7 -16 11 -21 8 -11
-7 -29 16 -22 27 2 4 20 7 39 6 30 -1 34 -4 29 -20z m2224 -55 c-2 -15 -7 -26
-13 -25 -12 3 -19 49 -10 71 6 16 7 16 16 -1 6 -10 9 -30 7 -45z m-2323 2 c0
-35 -3 -39 -26 -42 -36 -4 -47 24 -19 50 11 10 20 23 20 29 0 6 6 9 13 7 7 -3
12 -21 12 -44z m1462 12 c15 -33 13 -66 -6 -66 -5 0 -14 14 -20 31 -24 69 -3
96 26 35z m-1417 -15 c0 -6 -4 -13 -10 -16 -5 -3 -10 1 -10 9 0 9 5 16 10 16
6 0 10 -4 10 -9z m1379 -32 c14 -39 14 -49 1 -49 -13 0 -38 52 -33 68 8 21 21
13 32 -19z m925 -36 c-7 -21 -13 -48 -14 -60 0 -30 -20 -40 -37 -18 -15 22
-18 89 -3 80 6 -3 22 3 36 14 15 12 28 21 29 21 2 0 -3 -17 -11 -37z m-2494
22 c0 -14 -30 -62 -49 -79 -15 -14 -25 -16 -32 -9 -13 13 4 50 35 75 20 17 46
24 46 13z m1750 -47 c21 -44 25 -69 26 -148 1 -97 -9 -141 -28 -122 -6 6 -9
44 -7 91 2 45 0 82 -5 84 -5 2 -10 19 -11 37 0 19 -5 52 -9 73 -12 53 5 46 34
-15z m-1614 11 c3 -6 1 -16 -5 -22 -18 -18 -13 -65 10 -96 14 -19 19 -39 17
-62 -3 -29 -7 -34 -30 -36 -16 -1 -28 3 -28 8 0 6 -4 7 -10 4 -17 -11 -12 -65
6 -65 12 0 14 -5 9 -17 -4 -10 -6 -27 -5 -38 9 -59 4 -169 -7 -172 -8 -3 -13
5 -13 21 0 33 -16 42 -23 13 -3 -12 -11 -42 -17 -66 -8 -34 -8 -56 1 -93 14
-54 6 -71 -29 -62 -19 6 -21 11 -16 45 5 32 4 39 -10 39 -22 0 -22 65 0 78 11
6 13 16 8 36 -5 21 -9 24 -20 15 -8 -6 -14 -20 -14 -30 0 -24 -9 -24 -26 -1
-10 13 -13 14 -14 3 0 -16 -29 -51 -42 -51 -4 0 -8 7 -8 15 0 8 -6 15 -14 15
-8 0 -16 6 -19 13 -2 6 -8 9 -12 5 -4 -4 -2 -28 5 -53 11 -40 11 -48 -2 -61
-19 -19 -52 -8 -41 15 4 9 6 37 5 63 -1 26 2 50 7 53 5 3 7 30 4 60 l-6 55 32
6 c17 4 31 11 31 17 0 5 12 25 26 44 26 34 64 128 64 158 0 8 -4 15 -10 15
-18 0 -11 29 9 40 29 15 31 13 31 -30 0 -27 7 -47 20 -60 21 -21 27 -50 10
-50 -5 0 -13 8 -19 17 -8 15 -12 11 -28 -22 -10 -22 -28 -51 -41 -65 -36 -40
-43 -90 -8 -61 17 15 27 2 20 -27 -5 -18 -13 -20 -50 -18 -42 2 -44 1 -55 -31
-10 -31 -2 -65 8 -35 3 6 13 12 23 12 10 0 20 7 24 15 3 8 10 15 15 15 7 0 6
-9 -1 -25 -6 -14 -17 -25 -25 -25 -17 0 -17 -8 2 -26 12 -13 19 -5 50 61 40
84 52 96 58 63 2 -13 3 -6 0 15 -3 33 -1 38 14 35 13 -2 19 -15 23 -48 3 -27
8 -40 13 -33 4 7 15 9 24 6 13 -5 15 -1 9 28 -3 19 -8 99 -12 179 -5 128 -4
143 9 127 8 -10 18 -38 21 -62 4 -24 14 -49 23 -57 18 -14 17 -2 -8 114 -10
46 -10 60 1 73 15 18 26 19 36 4z m1428 -4 c14 -10 23 -12 32 -4 8 7 14 6 19
-2 4 -6 2 -15 -5 -19 -8 -5 -4 -15 14 -33 34 -34 37 -87 5 -87 -17 0 -19 3
-11 13 18 21 3 52 -44 91 -24 20 -44 41 -44 46 0 14 12 12 34 -5z m846 -120
c-14 -43 -44 -49 -34 -7 4 15 11 38 16 52 9 23 10 23 19 7 7 -12 7 -29 -1 -52z
m-1672 -4 c6 -98 -10 -118 -71 -90 -21 10 -25 20 -30 73 -2 33 -2 65 0 69 3 4
26 7 51 5 l47 -3 3 -54z m151 47 c36 -6 69 -14 72 -17 4 -3 9 -36 12 -73 6
-61 4 -68 -19 -93 -22 -24 -30 -27 -65 -21 -22 3 -57 13 -79 22 l-40 16 0 82
c0 46 3 86 7 89 9 10 36 9 112 -5z m274 0 c9 -8 20 -38 26 -73 9 -57 8 -61
-16 -87 -16 -17 -44 -31 -75 -37 -64 -14 -65 -14 -88 9 -17 17 -20 33 -20 100
0 74 1 80 23 85 79 17 130 18 150 3z m-563 -13 c19 -23 18 -115 -1 -128 -29
-18 -77 9 -89 52 -13 48 -13 57 6 75 20 20 68 21 84 1z m1240 0 c6 -8 9 -19 6
-24 -4 -6 2 -15 13 -20 17 -10 20 -25 24 -108 6 -133 13 -157 45 -169 20 -8
30 -22 40 -57 15 -48 11 -67 -14 -67 -9 0 -14 10 -14 29 0 17 -5 33 -11 37 -8
5 -10 -3 -6 -27 15 -81 20 -179 9 -179 -19 0 -34 41 -28 75 4 20 2 36 -4 40
-20 12 -25 -5 -25 -83 0 -61 -3 -77 -16 -80 -11 -2 -15 6 -15 30 0 19 -18 69
-44 119 -27 54 -41 92 -37 103 10 25 25 11 37 -32 17 -64 25 -70 53 -41 13 15
30 28 38 31 12 4 11 10 -3 39 -25 52 -30 84 -33 209 -3 127 -17 158 -25 53 -4
-59 -7 -65 -17 -47 -13 23 -20 155 -9 173 10 15 21 14 36 -4z m109 -20 c17
-20 31 -40 31 -45 0 -6 25 -35 55 -66 l56 -56 -3 -66 c-2 -41 -8 -67 -15 -70
-19 -6 -28 28 -14 50 13 20 6 42 -10 32 -6 -3 -19 2 -30 12 -14 13 -18 25 -14
45 5 21 0 33 -22 53 -15 14 -31 26 -35 26 -5 0 -8 10 -8 23 0 12 -9 37 -20 55
-22 36 -24 42 -11 42 5 0 23 -16 40 -35z m-1481 13 c14 -14 17 -98 3 -98 -16
0 -30 26 -37 68 -7 44 7 57 34 30z m826 -4 c18 -18 21 -66 6 -95 -12 -22 -59
-26 -78 -7 -13 13 -17 100 -5 111 12 13 62 7 77 -9z m-884 -41 c0 -18 -5 -24
-17 -21 -19 4 -28 30 -19 55 9 23 36 -3 36 -34z m-880 23 c0 -16 -18 -31 -27
-22 -8 8 5 36 17 36 5 0 10 -6 10 -14z m510 -11 c0 -26 -14 -33 -25 -15 -9 14
1 40 15 40 5 0 10 -11 10 -25z m1373 3 c25 -10 28 -15 25 -47 -3 -31 -7 -36
-31 -39 -36 -4 -54 11 -66 56 -16 56 -6 60 72 30z m-1653 -33 c0 -9 -7 -30
-16 -47 -11 -22 -13 -33 -5 -41 6 -6 11 -24 11 -39 0 -32 -28 -108 -40 -108
-17 0 -5 173 14 213 19 38 36 49 36 22z m1760 -3 c0 -10 -5 -23 -12 -30 -15
-15 -48 -16 -48 -1 0 6 5 19 10 30 14 24 50 25 50 1z m202 -36 c-3 -5 -4 -39
-3 -75 3 -92 -15 -66 -22 30 -4 52 -1 81 6 88 9 9 13 7 18 -11 3 -13 4 -27 1
-32z m198 37 c0 -10 6 -27 13 -39 45 -77 68 -128 63 -141 -3 -8 -1 -24 5 -35
24 -44 48 -348 28 -348 -15 0 -18 15 -33 155 -15 136 -38 253 -55 282 -9 16
-10 15 -11 -5 0 -30 -25 -24 -25 6 0 11 -4 24 -8 28 -9 9 -9 98 0 107 12 12
23 7 23 -10z m328 -15 c21 7 25 -27 7 -54 -12 -19 -15 -37 -11 -65 3 -21 2
-40 -2 -43 -16 -9 -45 68 -48 124 -2 66 4 80 25 53 9 -11 22 -18 29 -15z m132
-30 c0 -21 -3 -29 -10 -22 -5 5 -7 19 -4 32 9 31 14 27 14 -10z m-1883 -44
c37 -8 102 -17 143 -20 71 -4 154 -26 174 -45 13 -12 206 -11 278 1 32 5 72
16 90 24 56 26 113 34 168 24 40 -7 63 -5 108 8 136 41 145 42 175 27 31 -16
48 -50 40 -82 -6 -24 -28 -28 -37 -6 -3 9 -18 15 -36 15 -16 0 -30 5 -30 10 0
6 -4 10 -9 10 -16 0 -96 -41 -136 -69 -21 -16 -45 -26 -53 -24 -7 3 -25 -5
-40 -19 -28 -25 -90 -55 -130 -63 -12 -2 -27 -7 -32 -10 -6 -4 -16 -2 -23 3
-8 7 -33 6 -79 -3 -36 -8 -129 -15 -206 -16 l-139 -2 -97 48 c-53 26 -101 56
-107 66 -5 11 -14 19 -19 19 -5 0 -29 21 -52 47 -24 26 -55 59 -70 75 -16 16
-28 30 -28 32 0 2 18 -5 39 -16 22 -11 70 -26 108 -34z m1851 -23 c-2 -9 -10
-16 -18 -16 -10 0 -16 12 -18 40 l-2 40 20 -24 c12 -13 19 -31 18 -40z m-2358
5 c0 -20 -34 -60 -48 -55 -8 3 -6 14 8 37 20 33 40 42 40 18z m2320 -71 c0
-16 -4 -36 -9 -44 -12 -19 -24 19 -16 52 4 14 2 28 -4 32 -6 3 -9 11 -5 16 10
16 33 -23 34 -56z m-2260 13 c0 -4 -7 -8 -15 -8 -10 0 -15 10 -15 28 1 26 1
26 15 8 8 -11 15 -23 15 -28z m86 15 c-10 -10 -19 5 -10 18 6 11 8 11 12 0 2
-7 1 -15 -2 -18z m-446 -24 c0 -11 -4 -19 -9 -19 -22 0 -51 -69 -52 -121 l-2
-54 -8 64 c-7 57 -6 67 13 94 12 17 23 40 24 51 1 12 3 23 3 25 3 12 31 -25
31 -40z m-160 21 c0 -5 -4 -10 -9 -10 -6 0 -13 5 -16 10 -3 6 1 10 9 10 9 0
16 -4 16 -10z m2230 0 c0 -5 -5 -10 -11 -10 -5 0 -7 5 -4 10 3 6 8 10 11 10 2
0 4 -4 4 -10z m-2135 -33 c-8 -18 -35 -31 -35 -16 0 6 5 20 11 31 12 23 33 11
24 -15z m1900 -18 c-41 -7 -55 -17 -55 -38 0 -12 -10 -20 -30 -24 -21 -5 -31
-14 -36 -32 -4 -15 -13 -25 -24 -25 -26 0 -32 14 -19 44 9 19 20 26 40 26 26
0 59 22 59 40 0 4 14 17 31 28 29 18 33 18 48 3 15 -15 14 -16 -14 -22z m319
-20 c3 -25 10 -58 15 -72 9 -22 8 -27 -4 -27 -8 0 -15 7 -15 15 0 10 -7 15
-17 13 -15 -3 -18 4 -15 37 l2 40 -20 -25 c-17 -21 -21 -23 -30 -10 -17 26 11
86 36 76 7 -3 16 0 20 5 11 18 22 -4 28 -52z m-226 19 c17 -17 15 -48 -2 -48
-16 0 -46 26 -46 40 0 7 15 17 31 19 3 1 10 -4 17 -11z m107 -50 c-4 -17 0
-40 9 -59 18 -36 21 -69 7 -69 -5 0 -15 16 -21 36 -11 33 -13 34 -26 17 -12
-16 -15 -16 -24 -3 -13 19 -13 80 0 80 6 0 10 -11 10 -25 0 -14 5 -25 10 -25
6 0 8 15 4 40 -4 21 -3 47 0 57 7 17 8 17 22 -2 9 -12 12 -30 9 -47z m-1961 5
c-4 -21 -8 -65 -9 -98 -1 -44 -7 -69 -24 -95 l-23 -35 5 95 c5 94 26 170 48
170 8 0 9 -12 3 -37z m711 7 c3 -11 17 -23 30 -26 13 -3 26 -12 29 -19 3 -8
23 -19 45 -25 35 -9 41 -15 41 -37 0 -16 -12 -37 -36 -58 -29 -27 -32 -34 -18
-39 13 -5 14 -9 4 -21 -19 -23 -7 -27 27 -10 24 12 31 23 36 55 3 22 12 47 21
55 9 9 16 21 16 26 0 5 16 1 35 -8 25 -12 32 -19 23 -26 -8 -5 3 -6 27 -2 74
12 237 17 247 7 7 -7 6 -17 -1 -29 -10 -17 -10 -16 -11 5 0 23 -19 29 -37 11
-7 -7 -17 -8 -29 -1 -32 16 -69 8 -72 -16 -2 -12 -10 -22 -18 -22 -10 0 -14
-12 -14 -40 0 -59 -22 -95 -70 -114 -54 -22 -73 -21 -65 3 4 13 0 20 -15 24
-22 6 -27 26 -7 31 6 2 38 10 70 17 l57 12 0 49 c0 26 -2 48 -5 48 -13 0 -55
-33 -55 -44 0 -6 -17 -22 -37 -36 -30 -20 -50 -25 -115 -28 l-78 -2 6 25 c7
29 -15 35 -40 10 -19 -19 -75 -29 -152 -27 -52 2 -64 -1 -87 -22 -30 -28 -35
-46 -13 -46 8 0 17 -4 20 -8 6 -10 -40 -109 -61 -134 -19 -22 -65 -32 -109
-24 -36 7 -48 36 -15 36 26 0 44 25 50 71 3 22 10 38 16 37 9 -3 9 -39 -1 -90
-4 -22 -2 -27 10 -22 27 10 48 52 37 73 -18 32 15 105 66 151 38 33 54 40 92
42 38 1 40 2 13 5 -53 7 -32 26 44 39 91 16 104 16 104 1 0 -18 -55 -57 -80
-57 -11 0 -20 -4 -20 -10 0 -16 19 -12 77 16 41 21 53 31 53 50 0 12 -4 25 -9
28 -21 14 -60 94 -54 114 7 27 20 28 28 2z m1648 -46 c1 -38 -3 -59 -11 -62
-8 -2 -12 13 -12 56 0 53 7 79 18 68 2 -3 4 -30 5 -62z m-2553 36 c0 -5 -4
-10 -10 -10 -5 0 -10 5 -10 10 0 6 5 10 10 10 6 0 10 -4 10 -10z m2018 -2 c7
-7 12 -20 12 -30 0 -20 44 -65 77 -78 21 -9 79 -77 72 -84 -9 -9 -115 17 -132
31 -9 9 -20 13 -24 10 -3 -4 -1 -7 5 -7 20 0 1 -29 -21 -33 l-22 -4 23 -8 c18
-6 22 -15 22 -52 l0 -44 -49 53 c-27 29 -52 50 -56 46 -14 -14 8 -50 46 -74
44 -27 45 -50 2 -33 -21 8 -30 6 -50 -12 -12 -13 -23 -31 -23 -42 0 -29 -25
-14 -26 16 -1 14 -7 33 -13 41 -7 8 -10 20 -6 26 10 16 -42 31 -88 24 -35 -5
-40 -4 -29 7 17 18 15 39 -5 55 -17 12 -16 13 7 15 43 2 64 -2 83 -19 9 -8 20
-12 24 -8 13 13 -82 86 -111 86 -10 0 -13 -6 -10 -15 7 -18 -7 -20 -23 -4 -14
14 -36 2 -29 -16 3 -8 1 -26 -3 -42 -10 -36 -4 -53 19 -53 9 0 23 -7 30 -15 8
-10 27 -15 52 -13 46 2 56 -7 60 -52 3 -32 0 -35 -24 -38 -31 -4 -36 -23 -13
-46 8 -8 11 -17 6 -20 -5 -3 -16 5 -25 19 -9 13 -25 33 -37 44 -23 22 -18 41
11 41 10 0 22 5 25 10 4 6 -11 10 -38 10 l-45 0 12 -35 c7 -19 19 -42 27 -52
25 -31 39 -62 39 -84 0 -21 -1 -21 -19 -5 -10 9 -27 32 -37 51 -10 19 -25 37
-34 40 -8 3 -21 19 -29 37 -8 18 -25 47 -38 64 -24 32 -31 84 -12 84 5 0 20
-21 32 -47 26 -59 35 -35 12 32 -9 29 -13 60 -9 81 5 27 3 34 -9 34 -9 0 -19
-5 -23 -11 -8 -14 -24 8 -24 33 0 14 8 18 38 16 48 -1 82 10 106 35 19 20 19
19 40 -20 19 -36 94 -113 110 -113 13 0 5 21 -13 37 -11 9 -18 21 -14 25 8 13
43 -22 43 -43 0 -16 6 -17 53 -12 28 3 54 7 56 9 2 2 -3 12 -12 22 -22 24 -21
29 4 35 16 4 19 10 14 29 -4 13 -17 31 -29 40 -18 15 -19 19 -6 28 20 13 34
12 48 -2z m-1898 -27 c0 -3 3 -17 6 -31 l6 -25 -21 24 c-25 27 -28 53 -6 45 8
-4 15 -9 15 -13z m1829 -15 c8 -10 9 -16 1 -21 -5 -3 -10 -17 -10 -30 0 -33
-28 -40 -51 -13 -23 29 -23 33 -1 57 21 23 45 26 61 7z m-399 -71 c0 -13 5
-36 12 -50 13 -29 8 -38 -16 -29 -10 4 -16 17 -16 35 0 35 -24 39 -35 7 l-8
-23 -4 23 c-2 12 -8 22 -13 22 -5 0 -7 6 -4 14 5 13 21 18 72 25 7 0 12 -10
12 -24z m984 -37 c3 -13 2 -26 -3 -31 -11 -11 -34 20 -27 38 8 22 23 18 30 -7z
m122 -25 c-14 -14 -23 4 -13 27 l10 25 5 -23 c2 -13 1 -26 -2 -29z m-1948 25
c-6 -16 -57 -42 -66 -33 -9 9 36 45 55 45 8 0 13 -6 11 -12z m1867 2 c3 -5 1
-10 -4 -10 -6 0 -11 5 -11 10 0 6 2 10 4 10 3 0 8 -4 11 -10z m-2259 -37 c-11
-11 -19 6 -11 24 8 17 8 17 12 0 3 -10 2 -21 -1 -24z m1294 27 c0 -5 -4 -10
-10 -10 -5 0 -10 5 -10 10 0 6 5 10 10 10 6 0 10 -4 10 -10z m-1000 -24 c0 -2
-16 -14 -36 -25 -33 -20 -36 -25 -30 -53 6 -28 0 -36 -57 -92 -34 -34 -84 -72
-109 -86 -47 -24 -47 -24 -68 -5 -12 11 -31 37 -41 57 -33 64 -20 178 20 178
15 0 14 -4 -9 -42 -21 -35 -26 -68 -11 -68 6 0 24 29 42 65 17 36 38 65 45 65
22 0 17 -32 -11 -72 -29 -42 -29 -46 -10 -72 13 -18 15 -18 41 3 27 21 54 28
54 13 0 -4 -18 -25 -40 -47 -47 -46 -43 -68 6 -26 19 17 47 37 63 45 21 11 30
25 34 53 8 49 60 113 93 113 13 0 24 -2 24 -4z m796 -71 c-9 -20 -20 -34 -26
-30 -18 11 -11 58 13 83 21 23 22 23 25 4 2 -11 -4 -36 -12 -57z m84 69 c0
-13 -21 -44 -30 -44 -11 0 -14 33 -3 43 8 8 33 9 33 1z m749 -43 c15 -31 21
-56 16 -70 -10 -34 -29 -19 -38 30 -5 24 -13 48 -17 53 -9 9 -2 36 9 36 4 0
18 -22 30 -49z m183 -10 c2 -13 -3 -26 -9 -28 -8 -3 -13 5 -13 20 0 14 -3 34
-6 44 -6 16 -5 16 9 3 8 -8 17 -26 19 -39z m-898 23 c3 -9 6 -27 6 -40 0 -24
14 -32 25 -14 11 18 20 10 43 -39 20 -41 22 -52 11 -69 -12 -19 -7 -26 44 -76
55 -52 68 -78 47 -91 -5 -3 -16 8 -25 24 -16 32 -64 81 -78 81 -5 0 -7 -12 -5
-27 2 -21 9 -28 25 -28 30 -1 41 -14 21 -26 -13 -7 -15 -18 -11 -44 4 -23 2
-35 -6 -35 -19 0 -14 -81 7 -96 27 -21 32 -16 16 14 -18 35 -18 47 1 62 21 17
29 7 16 -18 -9 -18 -6 -24 19 -42 35 -25 40 -67 12 -93 -17 -15 -20 -15 -41
-1 -12 9 -27 27 -32 41 -5 14 -17 27 -27 30 -31 8 -57 112 -33 128 6 3 15 -4
21 -16 8 -14 15 -18 22 -11 6 6 0 27 -17 61 -22 41 -30 49 -41 40 -11 -9 -19
0 -40 46 -27 58 -27 58 -10 112 16 50 16 56 1 73 -13 14 -14 22 -4 44 14 30
24 33 33 10z m568 -8 c6 -14 8 -32 4 -41 -10 -26 -36 1 -36 36 0 35 16 38 32
5z m492 8 c10 -26 7 -31 -20 -37 -19 -3 -24 -1 -20 10 3 8 6 21 6 29 0 19 26
18 34 -2z m-71 -7 c8 -21 -1 -104 -13 -127 -14 -26 -33 -15 -24 13 6 19 9 41
13 110 1 20 17 23 24 4z m-1906 -19 c-3 -8 -6 -5 -6 6 -1 11 2 17 5 13 3 -3 4
-12 1 -19z m738 -18 c-5 -8 -11 -8 -17 -2 -6 6 -7 16 -3 22 5 8 11 8 17 2 6
-6 7 -16 3 -22z m-942 0 c-6 -24 -19 -34 -27 -21 -9 14 4 41 19 41 8 0 11 -8
8 -20z m898 -9 c-6 -10 -17 -23 -25 -31 -14 -10 -16 -10 -16 5 0 22 29 57 41
49 5 -3 5 -13 0 -23z m852 2 c6 -33 -2 -51 -14 -32 -11 18 -11 59 0 59 5 0 11
-12 14 -27z m-1962 -10 c-8 -15 -10 -15 -11 -2 0 17 10 32 18 25 2 -3 -1 -13
-7 -23z m724 16 c8 -12 -33 -59 -52 -59 -7 0 -13 7 -13 15 0 8 -7 15 -15 15
-15 0 -21 21 -8 33 11 11 81 8 88 -4z m565 -40 c0 -20 -15 -26 -25 -9 -9 15 3
43 15 35 5 -3 10 -15 10 -26z m-700 9 c0 -7 -9 -26 -20 -43 -11 -16 -20 -33
-20 -37 0 -5 22 -8 49 -8 44 0 49 2 44 20 -4 14 0 20 11 20 9 0 16 -7 16 -15
0 -25 62 -29 101 -6 50 31 145 25 125 -8 -4 -7 1 -11 13 -11 25 0 37 -18 17
-26 -22 -9 -9 -24 20 -24 13 0 24 -4 24 -9 0 -5 8 -11 18 -14 9 -2 25 -8 36
-12 14 -6 17 -4 14 6 -2 7 -15 16 -29 19 -35 9 -31 66 7 97 34 27 45 20 62
-40 17 -57 13 -78 -16 -93 -22 -11 -43 -9 -110 12 -18 5 -30 -2 -62 -36 -45
-49 -75 -46 -37 3 25 33 43 77 32 77 -4 0 -15 -10 -26 -22 l-18 -23 -1 28 c0
16 7 30 15 33 25 10 17 24 -12 24 -39 0 -73 -11 -73 -22 0 -6 9 -8 20 -5 12 3
20 0 20 -7 0 -19 -22 -36 -45 -36 -12 0 -25 -3 -29 -7 -9 -9 -14 -10 -56 -12
-18 -1 -41 -13 -60 -31 -17 -16 -35 -30 -41 -30 -6 0 -24 -14 -40 -32 -19 -19
-33 -28 -39 -22 -6 6 12 31 48 65 67 65 82 74 142 84 91 15 72 24 -47 22 -136
-2 -138 -1 -127 60 4 24 14 37 30 43 13 5 24 14 24 20 0 5 5 10 10 10 6 0 10
-6 10 -12z m265 -8 c0 -18 -43 -26 -57 -12 -16 16 2 33 30 30 16 -2 27 -9 27
-18z m-87 -2 c-6 -18 -28 -21 -28 -4 0 9 7 16 16 16 9 0 14 -5 12 -12z m491
-39 c27 -48 21 -62 -14 -29 l-24 23 -12 -29 c-6 -16 -18 -43 -27 -60 -18 -37
-10 -73 12 -55 25 21 51 -34 36 -75 -7 -18 -6 -33 6 -55 9 -18 14 -50 13 -82
-2 -29 0 -62 5 -74 4 -12 2 -24 -4 -28 -8 -5 -5 -13 7 -27 18 -20 17 -20 -7
-17 -26 4 -79 71 -80 102 0 27 -17 20 -29 -13 -15 -44 -24 -36 -17 15 5 29 4
45 -3 45 -6 0 -11 -4 -11 -10 0 -5 -10 -18 -21 -29 -17 -15 -20 -26 -14 -48
14 -56 17 -113 6 -113 -6 0 -11 7 -11 15 0 8 -7 15 -15 15 -19 0 -19 -20 1
-70 12 -30 15 -60 12 -111 -4 -54 -2 -69 8 -69 25 0 16 -37 -10 -42 -30 -6
-36 10 -36 110 0 46 -4 71 -10 67 -5 -3 -14 -4 -19 -1 -11 7 9 96 32 146 9 19
15 49 13 65 -4 35 20 82 46 88 21 6 25 56 6 75 -9 9 -9 18 0 37 12 25 12 26
36 8 19 -14 22 -23 15 -40 -9 -24 14 -93 31 -93 6 0 10 -8 10 -18 0 -10 6 -27
14 -37 14 -19 14 -19 14 5 0 14 4 37 7 52 6 24 3 29 -19 38 -21 8 -26 16 -26
44 0 19 4 45 9 59 6 14 6 29 0 38 -8 12 -12 11 -24 -5 -7 -10 -18 -15 -24 -11
-14 8 -14 62 -1 70 5 3 7 12 4 20 -3 8 4 20 15 27 13 8 21 23 21 39 0 25 33
79 49 79 4 0 18 -18 30 -41z m689 16 c48 -36 63 -57 60 -81 -4 -35 -20 -35
-31 1 -5 17 -22 44 -38 60 -42 45 -37 56 9 20z m-48 -38 c0 -33 -25 -12 -28
24 -2 32 -1 33 13 15 8 -11 15 -28 15 -39z m345 17 c0 -16 -5 -29 -12 -29 -7
0 -13 3 -13 8 0 4 0 19 0 33 0 16 5 24 13 22 6 -3 12 -18 12 -34z m-1105 -16
c0 -24 -18 -58 -30 -58 -11 0 -13 59 -4 84 8 22 34 2 34 -26z m677 1 c16 -17
38 -35 49 -39 15 -6 23 -19 26 -45 5 -45 -1 -52 -21 -21 -33 49 -93 107 -106
102 -19 -7 -27 5 -14 21 18 21 37 16 66 -18z m213 21 c0 -5 -4 -10 -10 -10 -5
0 -10 5 -10 10 0 6 5 10 10 10 6 0 10 -4 10 -10z m170 -6 c0 -24 -32 -45 -48
-32 -10 9 -9 14 5 29 23 23 43 24 43 3z m-130 -30 c0 -8 4 -14 9 -14 5 0 7 -8
5 -17 -2 -10 2 -38 9 -63 13 -40 18 -46 51 -54 32 -7 43 -5 67 13 30 22 42 14
14 -9 -9 -7 -14 -19 -11 -27 8 -20 -61 -17 -104 5 -46 22 -69 91 -61 180 1 18
21 5 21 -14z m64 -30 c30 -53 33 -74 10 -74 -15 0 -35 39 -48 93 -10 42 9 32
38 -19z m-184 -45 c0 -44 -4 -59 -14 -59 -24 0 -34 62 -20 118 5 18 9 20 20
11 9 -7 14 -32 14 -70z m-1467 41 c-6 -22 -23 -38 -23 -21 0 17 12 41 20 41 5
0 6 -9 3 -20z m1282 -1 c4 -11 5 -23 2 -25 -8 -8 -47 20 -47 33 0 21 38 15 45
-8z m532 9 c6 -8 4 -30 -3 -58 -10 -35 -13 -39 -13 -17 -1 22 -6 27 -26 27
-29 0 -31 7 -9 38 17 25 37 28 51 10z m-1002 -75 c9 -31 -10 -29 -31 2 -12 19
-22 23 -40 19 -30 -8 -31 3 -2 28 22 18 22 18 44 -4 12 -13 25 -33 29 -45z
m-781 39 c5 -8 -43 -50 -82 -71 -31 -17 -59 -7 -42 14 7 8 20 15 30 15 9 0 30
11 46 25 31 27 40 30 48 17z m-288 -38 c-10 -26 22 -44 70 -39 24 2 44 2 44 0
0 -2 -11 -16 -25 -31 -30 -32 -34 -60 -7 -49 48 20 53 19 46 -11 -7 -28 -6
-29 13 -11 19 16 43 23 43 12 0 -4 -7 -19 -15 -35 -9 -17 -15 -33 -13 -37 1
-5 -6 -9 -15 -11 -13 -3 -17 4 -17 24 0 22 -3 25 -12 16 -7 -7 -29 -12 -49
-12 -34 0 -41 5 -70 48 -18 26 -31 59 -31 75 1 28 -16 35 -36 15 -9 -9 -12 -9
-12 3 1 19 21 44 43 52 9 3 17 12 17 18 0 8 5 8 15 -1 9 -7 14 -19 11 -26z
m334 30 c0 -14 -25 -51 -47 -69 -13 -11 -29 -31 -36 -44 -23 -46 -38 -36 -20
13 10 25 23 46 30 46 7 0 22 14 35 30 20 27 38 39 38 24z m1273 -24 c10 -16
25 -30 33 -30 8 0 17 -13 21 -30 3 -20 12 -30 23 -30 21 0 35 -15 50 -54 10
-26 9 -28 -10 -23 -24 6 -25 -4 -4 -44 8 -17 13 -33 10 -36 -11 -12 -35 20
-51 67 -9 26 -25 56 -35 65 -11 10 -20 27 -20 38 0 11 -11 30 -25 43 -23 22
-35 64 -17 64 4 0 16 -13 25 -30z m-1063 -19 c0 -5 -9 -12 -19 -16 -11 -3 -22
-12 -25 -20 -5 -14 -160 -95 -182 -95 -6 0 -23 -9 -37 -20 -18 -14 -28 -17
-33 -9 -9 15 29 44 78 59 22 6 48 20 59 31 10 10 22 18 27 18 26 -4 44 4 52
25 5 13 15 26 22 29 22 9 58 8 58 -2z m330 -10 c0 -10 -6 -21 -14 -24 -7 -3
-16 -25 -20 -49 -9 -53 -30 -88 -56 -88 -11 0 -22 -9 -26 -22 -3 -13 -23 -41
-43 -64 -20 -22 -46 -53 -57 -70 -12 -16 -24 -26 -28 -23 -13 12 16 67 49 94
19 15 35 31 35 35 0 5 -20 12 -45 15 -42 7 -44 8 -38 36 7 38 -3 37 -54 -9
-47 -41 -54 -57 -23 -47 28 9 25 -10 -6 -34 -18 -15 -34 -19 -52 -14 -17 4
-39 -2 -68 -18 -24 -13 -46 -20 -50 -16 -12 12 46 65 95 89 25 12 64 41 87 65
30 31 51 44 82 49 34 5 43 3 48 -10 6 -16 8 -16 28 2 11 10 37 29 57 42 20 13
45 36 55 52 22 32 44 37 44 9z m611 -26 c15 -22 33 -45 39 -52 5 -7 10 -17 10
-24 0 -6 12 -20 26 -31 19 -15 23 -23 14 -32 -8 -8 -18 -3 -35 19 -14 17 -32
38 -42 49 -10 10 -25 30 -33 44 -26 42 -35 35 -37 -28 -1 -58 0 -60 49 -110
46 -47 49 -53 35 -67 -19 -20 -47 -10 -47 16 0 11 -8 28 -19 38 -32 31 -43 63
-50 144 l-7 78 34 -3 c27 -1 40 -10 63 -41z m33 36 c3 -5 16 -7 28 -3 14 3 19
2 14 -7 -4 -6 -12 -9 -17 -6 -23 15 -5 -11 28 -40 23 -20 33 -34 25 -38 -11
-8 -114 88 -104 97 8 9 20 7 26 -3z m-943 -24 c-13 -13 -26 -3 -16 12 3 6 11
8 17 5 6 -4 6 -10 -1 -17z m1396 17 c-3 -3 -12 -4 -19 -1 -8 3 -5 6 6 6 11 1
17 -2 13 -5z m-1190 -20 c5 -14 -77 -48 -101 -42 -30 6 -19 23 26 40 48 18 69
19 75 2z m983 6 c0 -5 -4 -10 -10 -10 -5 0 -10 5 -10 10 0 6 5 10 10 10 6 0
10 -4 10 -10z m-656 -26 c3 -9 6 -27 6 -41 0 -18 -4 -24 -15 -19 -10 4 -20 -3
-27 -19 -15 -33 -38 -32 -38 1 0 24 44 94 60 94 4 0 11 -7 14 -16z m257 -31
c11 -35 8 -127 -5 -140 -15 -15 -25 24 -20 70 5 37 3 52 -11 67 -20 22 -13 53
9 44 8 -3 20 -22 27 -41z m447 25 c16 -16 15 -28 -3 -28 -8 0 -15 2 -15 4 0 2
-3 11 -6 20 -7 19 7 21 24 4z m-1647 -31 c-13 -13 -26 -3 -16 12 3 6 11 8 17
5 6 -4 6 -10 -1 -17z m453 4 c3 -4 -19 -11 -48 -14 -29 -3 -73 -14 -97 -25
-24 -11 -62 -26 -83 -33 -21 -8 -45 -24 -54 -36 -13 -20 -12 -26 2 -48 16 -25
23 -105 8 -105 -15 0 -32 24 -32 46 0 12 -8 25 -17 28 -12 5 -14 9 -5 18 22
22 13 31 -24 25 -60 -10 -38 23 41 61 39 19 72 38 73 43 2 5 16 9 30 9 15 0
50 9 77 20 52 20 120 26 129 11z m1165 -17 c6 -15 9 -29 7 -32 -10 -9 -36 20
-36 39 0 27 15 23 29 -7z m156 -24 c-3 -6 -31 -10 -61 -10 -68 0 -70 21 -4 32
23 4 45 10 48 13 9 8 24 -24 17 -35z m-641 -6 c8 -22 8 -44 -1 -44 -11 0 -32
48 -25 55 10 9 20 5 26 -11z m189 -14 c15 -25 16 -30 3 -30 -17 0 -48 39 -40
52 9 14 19 9 37 -22z m133 -6 c38 -41 42 -54 17 -54 -10 0 -28 17 -40 40 -37
63 -29 68 23 14z m-1636 5 c0 -6 -4 -7 -10 -4 -5 3 -10 11 -10 16 0 6 5 7 10
4 6 -3 10 -11 10 -16z m528 4 c-3 -15 -31 -37 -83 -63 -11 -5 -28 -15 -37 -22
-9 -7 -21 -9 -25 -5 -4 5 -2 11 4 15 6 4 21 15 34 25 93 68 113 78 107 50z
m607 -40 c17 -40 13 -52 -10 -33 -18 15 -18 11 -5 -24 6 -16 6 -27 0 -31 -12
-7 -42 20 -33 29 4 3 1 6 -4 6 -6 0 -14 -6 -16 -12 -3 -7 -6 -2 -6 12 -1 34
14 54 33 47 13 -5 15 -2 10 18 -10 39 14 30 31 -12z m775 17 c0 -5 -12 -10
-26 -10 -14 0 -23 4 -19 10 3 6 15 10 26 10 10 0 19 -4 19 -10z m-1070 -29 c0
-4 -16 -28 -35 -52 -34 -43 -44 -69 -26 -69 5 0 11 6 14 13 2 6 8 9 12 5 8 -8
0 -45 -15 -68 -9 -13 -11 -13 -20 0 -7 11 -10 0 -10 -37 0 -52 -12 -69 -24
-37 -3 9 -6 29 -6 46 0 23 -4 29 -15 24 -8 -3 -22 -9 -30 -12 -8 -3 -15 -2
-15 4 0 5 7 15 15 22 8 7 15 21 15 32 0 15 5 18 20 13 11 -3 20 -2 20 3 0 18
74 122 87 122 7 0 13 -4 13 -9z m960 -1 c0 -5 -7 -10 -16 -10 -8 0 -12 5 -9
10 3 6 10 10 16 10 5 0 9 -4 9 -10z m77 -17 c6 -15 -24 -53 -41 -52 -6 0 -6 3
2 6 17 7 15 33 -3 33 -15 0 -21 21 -9 32 9 10 45 -4 51 -19z m-1758 -4 c21
-22 34 -69 19 -69 -15 0 -57 54 -58 73 0 23 15 22 39 -4z m91 13 c0 -15 -25
-62 -32 -62 -11 0 -10 28 2 51 11 19 30 26 30 11z m1416 -17 c10 -8 29 -15 42
-15 15 0 22 -6 22 -19 0 -30 -19 -36 -41 -12 -27 29 -41 26 -27 -5 11 -23 9
-28 -11 -44 -20 -14 -23 -23 -18 -54 7 -42 -9 -48 -24 -9 -8 21 -6 46 7 100 9
40 20 73 24 73 3 0 15 -7 26 -15z m-198 -17 c13 -13 16 -58 4 -58 -5 0 -16 16
-25 35 -17 36 -5 49 21 23z m-788 -13 c0 -9 -9 -15 -21 -15 -18 0 -19 2 -9 15
7 8 16 15 21 15 5 0 9 -7 9 -15z m540 6 c0 -4 29 -39 65 -76 53 -56 65 -75 65
-101 0 -18 -4 -35 -9 -38 -5 -4 -28 11 -50 31 -22 21 -47 44 -56 51 -8 7 -15
17 -15 22 0 14 34 12 48 -2 16 -16 29 -1 16 20 -7 10 -29 19 -55 22 -45 5 -45
5 -41 60 2 19 32 30 32 11z m-936 -10 c3 -5 -1 -14 -8 -20 -16 -13 -32 2 -21
19 8 12 22 13 29 1z m1116 -36 c0 -29 -15 -33 -29 -6 -11 20 -5 31 16 31 7 0
13 -11 13 -25z m-1051 -4 c20 -13 3 -33 -21 -25 -13 4 -24 1 -29 -7 -6 -11 -9
-9 -9 7 0 11 3 24 7 27 9 10 35 8 52 -2z m201 -61 c-17 -22 -36 -40 -41 -40
-19 0 -8 26 28 65 46 50 57 30 13 -25z m120 50 c0 -5 -4 -10 -10 -10 -5 0 -10
5 -10 10 0 6 5 10 10 10 6 0 10 -4 10 -10z m358 -69 c14 -44 15 -71 4 -71 -8
0 -52 108 -52 129 0 26 36 -17 48 -58z m436 21 c15 -45 14 -82 -3 -82 -9 0
-31 74 -31 105 0 40 17 29 34 -23z m66 36 c0 -7 3 -31 7 -53 l6 -40 -21 19
c-22 19 -27 41 -16 70 7 19 24 21 24 4z m-370 -23 c0 -20 5 -24 22 -22 27 3
39 -34 45 -143 2 -41 9 -79 14 -85 6 -5 9 -4 9 4 0 8 6 11 16 7 14 -5 15 1 9
55 -6 50 -5 61 6 57 14 -5 23 -27 34 -80 3 -15 12 -34 21 -43 15 -14 18 -14
39 10 15 15 23 35 22 51 -3 35 20 43 29 10 6 -25 24 -37 24 -16 0 21 18 9 24
-16 5 -18 2 -32 -10 -45 -23 -26 -34 -24 -34 6 0 16 -6 25 -16 25 -13 0 -15
-7 -11 -27 6 -34 -6 -73 -17 -55 -12 20 -35 13 -42 -13 -4 -16 -13 -25 -26
-25 -16 0 -19 5 -14 24 6 26 -1 56 -14 56 -4 0 -10 -17 -14 -38 -4 -28 -12
-42 -31 -50 -47 -22 -117 -9 -101 17 9 14 43 14 51 1 11 -17 24 -11 40 19 14
28 14 31 -8 46 -19 14 -22 23 -21 86 2 64 0 69 -17 64 -19 -6 -24 6 -20 49 0
10 -10 29 -24 42 -15 14 -22 29 -19 38 10 25 34 19 34 -9z m-673 -29 c-10 -24
-36 -31 -54 -13 -14 13 -13 17 7 37 20 20 24 21 37 7 9 -9 13 -23 10 -31z
m908 18 c23 -35 35 -78 25 -94 -5 -8 -17 8 -34 45 -14 32 -26 61 -26 66 0 18
18 9 35 -17z m203 -49 c7 -36 9 -77 5 -92 -6 -25 -8 -23 -20 27 -22 95 -25
130 -10 130 9 0 18 -23 25 -65z m-978 42 c0 -7 -9 -18 -21 -25 -13 -8 -18 -19
-15 -29 4 -9 -1 -21 -11 -28 -17 -13 -17 -14 2 -35 l19 -21 13 23 c7 13 12 30
13 39 0 19 33 59 49 59 13 0 15 -37 3 -42 -5 -1 -23 -28 -39 -58 -20 -35 -38
-56 -52 -58 -29 -5 -27 -22 3 -22 13 0 31 10 40 23 l16 22 -2 -25 c-4 -34 -47
-54 -99 -45 -21 4 -39 11 -39 16 0 5 4 9 10 9 5 0 17 12 26 26 13 19 14 28 5
33 -6 4 -9 15 -6 23 4 9 2 19 -4 23 -18 11 -12 25 10 25 14 0 19 5 17 19 -3
21 28 61 49 61 7 0 13 -6 13 -13z m-273 -13 c9 -23 -11 -38 -26 -20 -13 16 -7
36 10 36 5 0 12 -7 16 -16z m623 -7 c0 -13 -6 -32 -14 -42 -13 -18 -14 -18
-20 3 -8 23 8 62 24 62 6 0 10 -10 10 -23z m717 -24 c-3 -10 -5 -2 -5 17 0 19
2 27 5 18 2 -10 2 -26 0 -35z m-1277 7 c8 -14 21 -20 45 -20 40 0 49 -24 13
-34 -42 -11 -71 -6 -89 15 -14 16 -16 26 -8 40 13 24 26 24 39 -1z m694 -13
c23 -17 24 -101 2 -183 -9 -34 -16 -71 -16 -83 0 -31 -17 -26 -23 8 -6 30 8
99 24 116 5 5 9 19 9 31 0 30 -28 94 -41 94 -8 0 -7 5 1 15 15 18 21 19 44 2z
m-354 -26 c0 -5 2 -24 6 -42 l5 -34 -20 35 c-10 19 -17 38 -14 42 6 11 23 10
23 -1z m766 -36 c3 -19 10 -35 15 -35 5 0 4 11 -1 25 -12 30 2 40 23 17 19
-21 12 -66 -9 -58 -10 4 -14 -2 -14 -18 0 -13 -7 -26 -15 -29 -14 -6 -22 18
-26 78 -4 63 16 78 27 20z m-1031 -15 c0 -17 -34 -24 -54 -11 -7 5 -10 14 -6
20 10 17 60 9 60 -9z m517 3 c20 -18 24 -68 7 -79 -16 -10 -26 6 -33 54 -7 46
-2 51 26 25z m72 -20 c-3 -39 -3 -38 -15 -26 -13 13 -3 67 10 59 4 -3 7 -18 5
-33z m-115 -10 c14 -49 14 -100 0 -108 -16 -11 -20 -2 -26 74 -7 79 9 98 26
34z m425 16 c-3 -5 -10 -7 -15 -3 -5 3 -7 10 -3 15 3 5 10 7 15 3 5 -3 7 -10
3 -15z m-576 -20 c2 -13 8 -34 14 -46 13 -26 -3 -53 -33 -53 -10 0 -21 -4 -24
-10 -3 -5 3 -10 14 -10 54 0 70 -34 21 -45 -24 -5 -38 -1 -65 20 -41 31 -44
39 -10 31 22 -6 25 -3 25 23 0 16 7 34 15 41 8 7 15 28 15 47 0 40 23 42 28 2z
m362 -1 c0 -33 -19 -96 -31 -104 -19 -11 -20 3 -3 65 17 61 34 80 34 39z
m-662 0 c-3 -7 -13 -15 -24 -17 -16 -3 -17 -1 -5 13 16 19 34 21 29 4z m225
-2 c8 -19 -3 -57 -14 -50 -12 7 -12 64 0 64 5 0 11 -6 14 -14z m-53 -61 c0
-39 -23 -58 -58 -48 -28 7 -28 17 2 33 13 7 27 21 29 31 9 32 27 21 27 -16z
m364 -106 c-3 -5 -30 -9 -59 -9 -44 0 -53 3 -49 15 4 9 19 15 40 15 31 0 34 2
28 24 -11 46 8 49 27 6 10 -23 16 -46 13 -51z"/>
<path d="M3793 5330 l-171 -7 -124 -61 c-181 -89 -283 -181 -341 -309 -17 -39
-21 -67 -21 -146 0 -53 5 -102 11 -108 7 -7 41 11 109 57 218 146 405 220 634
250 63 8 199 -20 277 -57 35 -17 66 -29 67 -27 30 40 36 59 36 119 0 59 -5 77
-45 155 -24 49 -56 101 -70 117 -29 31 -21 30 -362 17z"/>
<path d="M4775 5332 c-20 -14 -63 -78 -94 -141 -47 -91 -54 -205 -17 -256 12
-17 16 -17 72 10 65 31 189 64 243 65 37 0 118 -14 216 -37 133 -31 342 -133
491 -239 75 -54 79 -52 90 36 25 201 -125 391 -406 515 l-85 37 -195 9 c-245
10 -302 11 -315 1z"/>
<path d="M3642 4839 c-13 -5 -21 -13 -18 -18 3 -4 -20 -11 -52 -14 -32 -4 -72
-13 -89 -22 -32 -16 -203 -174 -203 -188 0 -18 31 -4 71 33 95 87 135 108 256
129 71 12 123 16 145 12 58 -14 157 -60 221 -104 88 -61 87 -60 87 -43 0 18
-131 122 -187 147 -22 11 -70 22 -105 25 -67 7 -114 23 -68 24 24 0 202 -33
248 -46 21 -6 23 -4 20 22 -3 28 -5 29 -83 41 -96 14 -211 15 -243 2z"/>
<path d="M4994 4777 c-72 -38 -128 -65 -146 -71 -10 -3 -18 -12 -18 -19 0 -11
31 -4 124 29 173 60 197 62 334 26 117 -31 179 -62 241 -117 41 -37 81 -60 81
-47 0 5 -14 25 -31 46 -95 110 -261 175 -449 175 -79 0 -102 -4 -136 -22z"/>
<path d="M4290 4537 l0 -233 -34 -56 c-18 -31 -65 -99 -105 -150 -79 -106
-107 -162 -123 -246 -14 -77 -12 -104 11 -157 27 -61 127 -126 138 -89 1 5
-18 21 -42 36 -131 79 -109 244 63 461 119 152 117 142 120 425 3 213 1 242
-13 242 -13 0 -15 -29 -15 -233z"/>
<path d="M4592 4528 l3 -244 36 -59 c19 -33 68 -102 107 -153 86 -113 114
-181 116 -279 1 -58 -3 -77 -20 -100 -20 -26 -70 -66 -97 -76 -9 -3 -9 -8 -1
-17 9 -9 19 -8 45 5 85 43 113 98 107 206 -6 94 -48 191 -128 289 -29 36 -69
90 -89 120 l-36 55 -5 245 c-5 226 -6 245 -23 248 -17 4 -18 -9 -15 -240z"/>
<path d="M3565 4712 c-22 -9 -42 -18 -45 -22 -3 -3 -23 -17 -46 -33 -47 -32
-88 -83 -81 -101 3 -7 36 -23 73 -36 59 -20 94 -24 239 -28 186 -4 266 9 318
51 l27 22 -21 33 c-24 37 -78 67 -191 106 -90 31 -207 34 -273 8z m365 -85
c68 -41 77 -70 28 -85 -44 -14 -133 -24 -140 -16 -4 3 0 22 8 41 9 19 13 42
10 49 -8 21 4 44 23 44 9 0 41 -15 71 -33z m-202 -3 c3 -23 -18 -37 -43 -28
-16 6 -20 35 -8 48 14 14 48 1 51 -20z m-183 -15 c1 -13 5 -37 10 -52 7 -28 7
-28 -31 -22 -88 15 -94 26 -38 74 40 36 56 36 59 0z"/>
<path d="M5070 4699 c-19 -6 -64 -19 -100 -30 -71 -20 -125 -63 -118 -96 3
-17 38 -38 113 -68 106 -43 279 -56 398 -30 90 19 146 42 155 64 9 23 -89 104
-165 136 -54 22 -86 29 -158 31 -49 2 -106 -2 -125 -7z m-14 -89 c-4 -24 -2
-49 5 -62 16 -30 -5 -39 -54 -22 -22 8 -47 14 -56 14 -10 0 -26 6 -37 14 -28
21 -10 43 56 71 84 35 94 33 86 -15z m161 4 c8 -21 -19 -46 -40 -38 -17 6 -23
35 -10 47 12 13 44 7 50 -9z m189 -26 c31 -24 53 -49 54 -59 0 -9 -68 -36
-112 -44 -44 -8 -54 5 -28 38 11 14 20 36 20 49 0 45 22 50 66 16z"/>
<path d="M4178 3754 c-16 -8 -28 -21 -28 -29 0 -19 12 -19 47 2 40 22 69 13
136 -46 87 -76 159 -78 238 -6 22 20 55 43 74 52 33 16 37 16 70 0 43 -21 45
-21 45 -3 0 21 -45 46 -84 46 -25 0 -50 -12 -95 -46 -33 -25 -63 -50 -66 -55
-4 -5 -30 -9 -59 -9 -45 0 -56 4 -81 30 -40 42 -108 80 -142 80 -15 -1 -40 -8
-55 -16z"/>
<path d="M4211 3500 c-25 -53 -25 -50 -1 -50 13 0 20 7 20 18 0 10 5 23 11 29
8 8 8 17 1 29 -8 15 -13 12 -31 -26z"/>
<path d="M4166 3494 c-9 -24 -7 -28 9 -14 17 14 20 30 6 30 -5 0 -12 -7 -15
-16z"/>
<path d="M4277 3503 c-4 -3 -7 -23 -7 -44 0 -34 2 -37 23 -31 18 4 13 -4 -23
-41 -28 -29 -48 -43 -54 -37 -6 6 -5 15 3 24 11 13 6 15 -29 14 -40 0 -43 -3
-61 -45 -29 -69 -24 -90 13 -56 11 9 18 11 18 5 0 -17 25 -15 40 3 7 8 21 15
31 15 10 0 20 8 24 19 8 26 42 55 49 42 10 -16 -5 -61 -20 -61 -8 0 -14 -6
-14 -14 0 -11 12 -15 40 -14 37 0 43 4 66 45 19 31 25 52 21 72 -3 15 -1 33 5
39 12 12 4 42 -11 42 -5 0 -12 -19 -16 -42 -9 -50 -21 -78 -36 -78 -11 0 -8
57 7 114 6 27 5 29 -17 23 -12 -3 -28 -2 -34 3 -7 6 -15 7 -18 3z m-107 -173
c0 -5 -4 -10 -10 -10 -5 0 -10 5 -10 10 0 6 5 10 10 10 6 0 10 -4 10 -10z"/>
<path d="M4120 3440 c-8 -5 -35 -18 -60 -29 -54 -24 -100 -65 -100 -90 0 -10
-7 -32 -16 -50 -13 -25 -14 -35 -4 -44 9 -9 14 -8 24 6 7 9 22 17 33 17 11 0
31 8 44 19 13 10 30 16 36 14 9 -3 11 4 7 24 -4 20 -1 33 10 42 9 8 16 19 16
25 0 7 11 23 25 36 32 30 22 52 -15 30z m-65 -99 c-5 -22 -12 -31 -27 -31 -17
0 -19 4 -13 27 15 61 54 65 40 4z"/>
<path d="M4655 3371 c3 -11 1 -22 -5 -26 -5 -3 -10 -1 -10 4 0 6 -9 11 -20 11
-15 0 -20 -7 -20 -29 0 -17 -4 -33 -10 -36 -5 -3 -10 -18 -10 -31 0 -31 24
-27 28 4 2 12 10 22 18 22 8 0 17 0 22 0 6 0 10 -10 26 -82 7 -30 26 -38 26
-12 0 12 5 14 18 9 38 -17 62 -17 68 -2 7 19 -25 137 -38 137 -4 0 -26 11 -48
25 -48 30 -53 31 -45 6z m85 -65 c0 -8 -3 -21 -6 -29 -5 -13 -9 -12 -25 4 -11
11 -17 24 -14 29 9 15 45 12 45 -4z"/>
<path d="M4230 3259 c0 -11 5 -17 10 -14 6 3 10 13 10 21 0 8 -4 14 -10 14 -5
0 -10 -9 -10 -21z"/>
<path d="M4630 3237 c-10 -21 -11 -30 -2 -39 17 -17 24 -5 20 34 l-4 33 -14
-28z"/>
<path d="M4450 3225 c-26 -12 -39 -13 -55 -5 -25 13 -134 9 -138 -5 -2 -11 86
-28 148 -28 68 0 195 15 195 24 0 25 -104 34 -150 14z"/>
<path d="M5350 3142 c0 -14 35 -42 52 -42 9 0 28 -13 41 -30 14 -16 28 -30 31
-30 3 0 6 21 6 46 0 41 -2 46 -20 41 -11 -3 -20 0 -20 6 0 8 -4 7 -9 -2 -7
-11 -13 -11 -32 3 -25 17 -49 21 -49 8z"/>
<path d="M5500 3080 c0 -22 16 -27 23 -7 3 8 7 6 12 -7 5 -10 3 -26 -3 -36 -8
-14 -6 -29 8 -66 18 -46 19 -47 20 -18 0 17 -3 59 -6 93 -6 56 -9 61 -30 61
-17 0 -24 -6 -24 -20z"/>
<path d="M3061 3014 c0 -11 3 -14 6 -6 3 7 2 16 -1 19 -3 4 -6 -2 -5 -13z"/>
<path d="M3046 2971 c-4 -5 -2 -12 3 -15 5 -4 12 -2 15 3 4 5 2 12 -3 15 -5 4
-12 2 -15 -3z"/>
<path d="M3672 2920 c0 -14 2 -19 5 -12 2 6 2 18 0 25 -3 6 -5 1 -5 -13z"/>
<path d="M3712 2858 c-20 -20 -14 -28 23 -28 19 0 35 4 35 8 0 12 -22 32 -35
32 -6 0 -16 -5 -23 -12z"/>
<path d="M4097 2535 c-13 -9 -15 -15 -7 -20 7 -4 19 -1 27 8 19 19 3 29 -20
12z"/>
<path d="M5060 2590 c25 -20 50 -26 50 -12 0 8 -48 32 -64 32 -6 0 0 -9 14
-20z"/>
<path d="M4886 2445 c6 -16 42 -30 52 -21 7 7 -28 35 -45 36 -7 0 -10 -7 -7
-15z"/>
<path d="M4550 2385 c-6 -8 -9 -23 -5 -35 5 -14 2 -20 -9 -20 -20 0 -20 -1 1
-50 23 -51 33 -51 33 3 0 23 3 59 6 80 7 39 -4 48 -26 22z"/>
<path d="M4232 2319 c2 -7 10 -15 17 -17 8 -3 12 1 9 9 -2 7 -10 15 -17 17 -8
3 -12 -1 -9 -9z"/>
<path d="M3430 2165 c0 -8 5 -15 10 -15 6 0 10 7 10 15 0 8 -4 15 -10 15 -5 0
-10 -7 -10 -15z"/>
<path d="M4176 2111 c-32 -21 -54 -51 -37 -51 14 0 91 52 91 62 0 14 -24 9
-54 -11z"/>
<path d="M4085 2080 c-3 -5 -2 -10 4 -10 5 0 13 5 16 10 3 6 2 10 -4 10 -5 0
-13 -4 -16 -10z"/>
<path d="M3045 1037 c-108 -58 -286 -156 -305 -167 -18 -11 -188 -103 -330
-177 -58 -31 -109 -59 -115 -63 -9 -7 -60 -35 -210 -115 -33 -18 -87 -47 -120
-65 -33 -18 -85 -46 -115 -62 -129 -68 -165 -89 -177 -101 -9 -9 -43 -234 -43
-283 0 -2 1229 -4 2731 -4 l2732 0 -7 52 c-4 28 -11 96 -16 151 -4 54 -10 100
-12 101 -2 2 -32 18 -68 36 -36 18 -81 42 -100 52 -19 11 -62 34 -95 51 -60
33 -244 130 -430 227 -55 29 -147 79 -205 110 -58 32 -145 79 -195 106 -89 47
-121 64 -287 151 l-87 46 -83 -36 c-46 -19 -130 -50 -188 -67 -58 -18 -123
-38 -145 -45 -255 -85 -743 -141 -995 -116 -245 24 -361 41 -471 66 -125 29
-330 90 -369 110 -14 7 -50 20 -80 30 -30 10 -69 26 -86 36 -17 11 -35 19 -40
19 -5 0 -45 -20 -89 -43z"/>
</g>
</svg>
